<?xml version="1.0" encoding="utf-8"?>
<!-- ModMixer rugged-case shop icon master. Heavy-duty equipment case (n-handle,
     rubber feet, reinforced corners + ribs, side latches) holding three control
     modules: sliders+toggles / redline gauge+dials / LED-wave screen + vertical
     faders + hex jacks. The module block is scaled 1.05 about its centre so it
     fills more of the case (thinner inner border). Authored vector; rendered to .dds. -->
<svg xmlns="http://www.w3.org/2000/svg" viewBox="0 0 256 256" width="256" height="256">
  <path d="M97,52 L97,40 Q97,25 112,25 L144,25 Q159,25 159,40 L159,52 L147,52 L147,41 Q147,34 140,34 L116,34 Q109,34 109,41 L109,52 Z" fill="#2A313B" stroke="#475160" stroke-width="1.5"/>
  <path d="M114,30 Q128,25 142,30" fill="none" stroke="#3D4654" stroke-width="2" stroke-linecap="round"/>
  <rect x="34" y="226" width="28" height="13" rx="4" fill="#15181E"/><rect x="92" y="228" width="24" height="11" rx="4" fill="#15181E"/><rect x="140" y="228" width="24" height="11" rx="4" fill="#15181E"/><rect x="194" y="226" width="28" height="13" rx="4" fill="#15181E"/>
  <rect x="8" y="125" width="16" height="32" rx="4" fill="#14181E" stroke="#475160" stroke-width="1.5"/><rect x="11" y="137" width="10" height="7" rx="2" fill="#4A5260"/>
  <rect x="232" y="125" width="16" height="32" rx="4" fill="#14181E" stroke="#475160" stroke-width="1.5"/><rect x="235" y="137" width="10" height="7" rx="2" fill="#4A5260"/>
  <rect x="16" y="46" width="224" height="184" rx="18" fill="#2A313B" stroke="#475160" stroke-width="2"/>
  <g stroke="#171B22" stroke-width="2.5" stroke-linecap="round"><line x1="22" y1="92" x2="22" y2="184"/><line x1="27" y1="92" x2="27" y2="184"/><line x1="234" y1="92" x2="234" y2="184"/><line x1="229" y1="92" x2="229" y2="184"/></g>
  <rect x="30" y="60" width="196" height="156" rx="12" fill="#1E232B"/>
  <g fill="none" stroke="#14181E" stroke-width="5" stroke-linecap="round" stroke-linejoin="round"><path d="M26,72 L26,60 Q26,56 30,56 L42,56"/><path d="M230,72 L230,60 Q230,56 226,56 L214,56"/><path d="M26,204 L26,216 Q26,220 30,220 L42,220"/><path d="M230,204 L230,216 Q230,220 226,220 L214,220"/></g>
  <g transform="translate(-6.35,-6.9) scale(1.05)">
    <rect x="38" y="68" width="54" height="140" rx="7" fill="#161A21"/><rect x="100" y="68" width="54" height="140" rx="7" fill="#161A21"/><rect x="162" y="68" width="54" height="140" rx="7" fill="#161A21"/>
    <rect x="44" y="76" width="42" height="6" rx="3" fill="#8DC63F"/><rect x="106" y="76" width="42" height="6" rx="3" fill="#E8B43C"/><rect x="168" y="76" width="42" height="6" rx="3" fill="#4F93C4"/>
    <g stroke="#E7ECF1" stroke-width="5" stroke-linecap="round"><line x1="46" y1="105" x2="84" y2="105"/><line x1="46" y1="125" x2="84" y2="125"/><line x1="46" y1="145" x2="84" y2="145"/></g>
    <circle cx="72" cy="105" r="5.5" fill="#8DC63F"/><circle cx="52" cy="125" r="5.5" fill="#EDEFF2"/><circle cx="76" cy="145" r="5.5" fill="#EDEFF2"/>
    <rect x="45" y="166" width="14" height="28" rx="3.5" fill="#10141A"/><rect x="71" y="166" width="14" height="28" rx="3.5" fill="#10141A"/>
    <circle cx="52" cy="172" r="3.2" fill="#9AA3AD"/><circle cx="52" cy="180" r="4.6" fill="#E8ECF0"/>
    <circle cx="78" cy="188" r="3.2" fill="#9AA3AD"/><circle cx="78" cy="180" r="4.6" fill="#E8ECF0"/>
    <path d="M112,133 A17,17 0 0 1 127,108" fill="none" stroke="#3A434F" stroke-width="5" stroke-linecap="round"/>
    <path d="M127,108 A17,17 0 0 1 143.9,123.5" fill="none" stroke="#E8B43C" stroke-width="5"/>
    <path d="M143.9,123.5 A17,17 0 0 1 142,133" fill="none" stroke="#E2554E" stroke-width="5" stroke-linecap="round"/>
    <line x1="127" y1="125" x2="138" y2="116" stroke="#EDEFF2" stroke-width="3" stroke-linecap="round"/><circle cx="127" cy="125" r="4" fill="#EDEFF2"/>
    <circle cx="114" cy="160" r="7" fill="#C5CAD0"/><line x1="114" y1="160" x2="110" y2="155" stroke="#2A313B" stroke-width="2" stroke-linecap="round"/>
    <circle cx="140" cy="160" r="7" fill="#C5CAD0"/><line x1="140" y1="160" x2="144" y2="155" stroke="#2A313B" stroke-width="2" stroke-linecap="round"/>
    <circle cx="120" cy="186" r="3" fill="#E8B43C"/><circle cx="134" cy="186" r="3" fill="#C5CAD0"/>
    <rect x="168" y="96" width="42" height="30" rx="4" fill="#0E1218"/>
    <g fill="#8DC63F"><circle cx="172" cy="116" r="2.5"/><circle cx="178" cy="108" r="2.5"/><circle cx="184" cy="116" r="2.5"/><circle cx="190" cy="116" r="2.5"/><circle cx="196" cy="100" r="2.5"/><circle cx="202" cy="109" r="2.5"/><circle cx="207" cy="116" r="2.5"/></g>
    <line x1="181" y1="131" x2="181" y2="165" stroke="#3A434F" stroke-width="3" stroke-linecap="round"/>
    <rect x="175" y="137" width="12" height="11" rx="2.5" fill="#8DC63F"/><line x1="177" y1="142.5" x2="185" y2="142.5" stroke="#161A21" stroke-width="2" stroke-linecap="round"/>
    <line x1="201" y1="131" x2="201" y2="165" stroke="#3A434F" stroke-width="3" stroke-linecap="round"/>
    <rect x="195" y="151" width="12" height="11" rx="2.5" fill="#2A313B" stroke="#475160" stroke-width="1"/><line x1="197" y1="156.5" x2="205" y2="156.5" stroke="#E8ECF0" stroke-width="2" stroke-linecap="round"/>
    <g transform="translate(176,188)"><path d="M7,0 L3.5,6.06 L-3.5,6.06 L-7,0 L-3.5,-6.06 L3.5,-6.06 Z" fill="#C5CAD0"/><circle r="2.5" fill="#14181E"/></g>
    <g transform="translate(202,188)"><path d="M7,0 L3.5,6.06 L-3.5,6.06 L-7,0 L-3.5,-6.06 L3.5,-6.06 Z" fill="#C5CAD0"/><circle r="2.5" fill="#14181E"/></g>
  </g>
</svg>
