<?xml version="1.0" encoding="utf-8"?>
<!-- ModMixer master icon — "#1 bolt-heads": three faders, knobs are rotated hex
     bolt-heads with drilled centres, top (winner) knob in FS green. This is the
     authored vector source; tools/gen_icon.py renders it (and a white, hole-
     punched glyph variant) to the shipped .dds files. -->
<svg xmlns="http://www.w3.org/2000/svg" viewBox="0 0 256 256" width="256" height="256">
  <rect width="256" height="256" rx="57" fill="#1E232B"/>
  <g stroke="#E7ECF1" stroke-width="13" stroke-linecap="round">
    <line x1="55" y1="88" x2="201" y2="88"/>
    <line x1="55" y1="132" x2="201" y2="132"/>
    <line x1="55" y1="176" x2="201" y2="176"/>
  </g>
  <g transform="translate(165,88)">
    <g transform="rotate(10)"><path d="M23,0 L11.5,19.92 L-11.5,19.92 L-23,0 L-11.5,-19.92 L11.5,-19.92 Z" fill="#8DC63F"/></g>
    <circle r="7" fill="#161A21"/>
  </g>
  <g transform="translate(95,132)">
    <g transform="rotate(-18)"><path d="M23,0 L11.5,19.92 L-11.5,19.92 L-23,0 L-11.5,-19.92 L11.5,-19.92 Z" fill="#EDEFF2"/></g>
    <circle r="7" fill="#161A21"/>
  </g>
  <g transform="translate(176,176)">
    <g transform="rotate(22)"><path d="M23,0 L11.5,19.92 L-11.5,19.92 L-23,0 L-11.5,-19.92 L11.5,-19.92 Z" fill="#EDEFF2"/></g>
    <circle r="7" fill="#161A21"/>
  </g>
</svg>
